<svg width="15" height="18" viewBox="0 0 15 18" fill="none" xmlns="http://www.w3.org/2000/svg">
<path d="M12.5 0.666016H5C4.08333 0.666016 3.33333 1.41602 3.33333 2.33268V12.3327C3.33333 13.2493 4.08333 13.9993 5 13.9993H12.5C13.4167 13.9993 14.1667 13.2493 14.1667 12.3327V2.33268C14.1667 1.41602 13.4167 0.666016 12.5 0.666016ZM12.5 12.3327H5V2.33268H12.5V12.3327ZM0 11.4993V9.83268H1.66667V11.4993H0ZM0 6.91602H1.66667V8.58268H0V6.91602ZM5.83333 15.666H7.5V17.3327H5.83333V15.666ZM0 14.416V12.7493H1.66667V14.416H0ZM1.66667 17.3327C0.75 17.3327 0 16.5827 0 15.666H1.66667V17.3327ZM4.58333 17.3327H2.91667V15.666H4.58333V17.3327ZM8.75 17.3327V15.666H10.4167C10.4167 16.5827 9.66667 17.3327 8.75 17.3327ZM1.66667 3.99935V5.66602H0C0 4.74935 0.75 3.99935 1.66667 3.99935Z" fill="#222766"/>
</svg>
